<svg width="122" height="122" viewBox="0 0 122 122" fill="none" xmlns="http://www.w3.org/2000/svg">
<path fill-rule="evenodd" clip-rule="evenodd" d="M72.6051 122H45.6968C45.6968 120.204 45.8888 111.433 45.5859 111.291C15.6705 119.567 11.7103 101.145 11.7103 101.145C8.14918 92.4012 3.02164 90.0696 3.02164 90.0696C-4.07858 85.3725 3.56102 85.4674 3.56102 85.4674C11.4148 86.0029 15.5449 93.2687 15.5449 93.2687C22.5269 104.838 41.3819 98.9011 45.8371 96.9626C45.8371 85.0336 58.3234 77.9372 58.3234 77.9372C40.9534 76.0259 22.6895 69.5327 22.6895 40.5235C22.6895 32.2613 25.7334 25.5039 30.7427 20.2104C29.9374 18.2922 27.248 10.5926 31.5111 0.175036C31.5111 0.175036 38.0793 -1.85832 53.026 7.93571C59.2618 6.25476 65.9556 5.41435 72.6051 5.38722V122Z" fill="white"/>
<path d="M117.239 58.0999C113.779 66.4898 107.464 73.127 99.6974 77.4307L119.584 118.158L122 122L110.409 121.955L90.5232 81.2282C86.4028 82.4152 82.0709 83.024 77.6791 82.9919V73.7297C90.6585 73.8588 102.966 66.6194 107.836 54.8123C114.071 39.6932 105.784 22.7224 89.3633 16.9813C85.5701 15.6551 81.6178 15.0153 77.6791 15.0571V5.79029C82.8223 5.74923 87.9815 6.59143 92.9342 8.32295C114.54 15.8769 125.443 38.2068 117.239 58.0999Z" fill="white"/>
</svg>
